{"scene":0,"asset":{"generator":"ImageToStl.com","version":"2.0"},"scenes":[{"name":"Scene","nodes":[0]}],"nodes":[{"name":"Node0","children":[1]},{"name":"Node1","mesh":0}],"materials":[{"name":"Wood","pbrMetallicRoughness":{"baseColorFactor":[0.201556,0.082283,0.061246,1.0],"metallicFactor":0.5,"roughnessFactor":0.75},"emissiveFactor":[0.0,0.0,0.0],"doubleSided":true},{"name":"Black","pbrMetallicRoughness":{"baseColorFactor":[0.02721,0.02721,0.02721,1.0],"metallicFactor":0.5,"roughnessFactor":0.75},"emissiveFactor":[0.0,0.0,0.0],"doubleSided":true}],"meshes":[{"name":"Mesh0","primitives":[{"indices":3,"material":0,"attributes":{"POSITION":0,"NORMAL":1,"TEXCOORD_0":2}},{"indices":4,"material":1,"attributes":{"POSITION":0,"NORMAL":1,"TEXCOORD_0":2}}]}],"accessors":[{"bufferView":0,"componentType":5126,"count":914,"type":"VEC3","min":[-0.41124985,-0.41718054,-0.7510134],"max":[0.40940395,0.39100572,2.0797734]},{"bufferView":1,"componentType":5126,"count":914,"type":"VEC3"},{"bufferView":2,"componentType":5126,"count":914,"type":"VEC2"},{"bufferView":3,"componentType":5123,"count":2151,"type":"SCALAR"},{"bufferView":4,"componentType":5123,"count":2025,"type":"SCALAR"}],"bufferViews":[{"target":34962,"buffer":0,"byteLength":10968,"byteOffset":0},{"target":34962,"buffer":0,"byteLength":10968,"byteOffset":10968},{"target":34962,"buffer":0,"byteLength":7312,"byteOffset":21936},{"target":34963,"buffer":0,"byteLength":4302,"byteOffset":29248},{"target":34963,"buffer":0,"byteLength":4050,"byteOffset":33552}],"buffers":[{"byteLength":37604,"uri":"data:application/octet-stream;base64,"}]}