{"scene":0,"asset":{"generator":"ImageToStl.com","version":"2.0"},"scenes":[{"name":"Scene","nodes":[0]}],"nodes":[{"name":"Node0","children":[1]},{"name":"Node1","mesh":0}],"materials":[{"name":"Grey","pbrMetallicRoughness":{"baseColorFactor":[0.429219,0.429219,0.429219,1.0],"metallicFactor":0.5,"roughnessFactor":0.75},"emissiveFactor":[0.0,0.0,0.0],"doubleSided":true},{"name":"DarkGrey","pbrMetallicRoughness":{"baseColorFactor":[0.281004,0.281004,0.281004,1.0],"metallicFactor":0.5,"roughnessFactor":0.75},"emissiveFactor":[0.0,0.0,0.0],"doubleSided":true}],"meshes":[{"name":"Mesh0","primitives":[{"indices":3,"material":0,"attributes":{"POSITION":0,"NORMAL":1,"TEXCOORD_0":2}},{"indices":4,"material":1,"attributes":{"POSITION":0,"NORMAL":1,"TEXCOORD_0":2}}]}],"accessors":[{"bufferView":0,"componentType":5126,"count":303,"type":"VEC3","min":[-0.79748946,-0.78906465,-0.83757114],"max":[0.79748946,0.78906465,0.8375716]},{"bufferView":1,"componentType":5126,"count":303,"type":"VEC3"},{"bufferView":2,"componentType":5126,"count":303,"type":"VEC2"},{"bufferView":3,"componentType":5123,"count":2772,"type":"SCALAR"},{"bufferView":4,"componentType":5123,"count":2340,"type":"SCALAR"}],"bufferViews":[{"target":34962,"buffer":0,"byteLength":3636,"byteOffset":0},{"target":34962,"buffer":0,"byteLength":3636,"byteOffset":3636},{"target":34962,"buffer":0,"byteLength":2424,"byteOffset":7272},{"target":34963,"buffer":0,"byteLength":5544,"byteOffset":9696},{"target":34963,"buffer":0,"byteLength":4680,"byteOffset":15240}],"buffers":[{"byteLength":19920,"uri":"data:application/octet-stream;base64,"}]}