{"scene":0,"asset":{"generator":"ImageToStl.com","version":"2.0"},"scenes":[{"name":"Scene","nodes":[0]}],"nodes":[{"name":"Node0","children":[1]},{"name":"Node1","mesh":0}],"materials":[{"name":"Grey","pbrMetallicRoughness":{"baseColorFactor":[0.429219,0.429219,0.429219,1.0],"metallicFactor":0.5,"roughnessFactor":0.75},"emissiveFactor":[0.0,0.0,0.0],"doubleSided":true},{"name":"Golden","pbrMetallicRoughness":{"baseColorFactor":[0.638267,0.4602,0.157284,1.0],"metallicFactor":0.5,"roughnessFactor":0.75},"emissiveFactor":[0.0,0.0,0.0],"doubleSided":true},{"name":"Black","pbrMetallicRoughness":{"baseColorFactor":[0.027209,0.027209,0.027209,1.0],"metallicFactor":0.5,"roughnessFactor":0.75},"emissiveFactor":[0.0,0.0,0.0],"doubleSided":true}],"meshes":[{"name":"Mesh0","primitives":[{"indices":3,"material":0,"attributes":{"POSITION":0,"NORMAL":1,"TEXCOORD_0":2}},{"indices":4,"material":1,"attributes":{"POSITION":0,"NORMAL":1,"TEXCOORD_0":2}},{"indices":5,"material":2,"attributes":{"POSITION":0,"NORMAL":1,"TEXCOORD_0":2}}]}],"accessors":[{"bufferView":0,"componentType":5126,"count":348,"type":"VEC3","min":[-0.66821975,-0.7054139,-0.6215608],"max":[0.66821975,0.8241626,1.3462608]},{"bufferView":1,"componentType":5126,"count":348,"type":"VEC3"},{"bufferView":2,"componentType":5126,"count":348,"type":"VEC2"},{"bufferView":3,"componentType":5123,"count":4068,"type":"SCALAR"},{"bufferView":4,"componentType":5123,"count":1728,"type":"SCALAR"},{"bufferView":5,"componentType":5123,"count":108,"type":"SCALAR"}],"bufferViews":[{"target":34962,"buffer":0,"byteLength":4176,"byteOffset":0},{"target":34962,"buffer":0,"byteLength":4176,"byteOffset":4176},{"target":34962,"buffer":0,"byteLength":2784,"byteOffset":8352},{"target":34963,"buffer":0,"byteLength":8136,"byteOffset":11136},{"target":34963,"buffer":0,"byteLength":3456,"byteOffset":19272},{"target":34963,"buffer":0,"byteLength":216,"byteOffset":22728}],"buffers":[{"byteLength":22944,"uri":"data:application/octet-stream;base64,"}]}