{"scene":0,"asset":{"generator":"ImageToStl.com","version":"2.0"},"scenes":[{"name":"Scene","nodes":[0]}],"nodes":[{"name":"Node0","children":[1]},{"name":"Node1","mesh":0}],"materials":[{"name":"Grey","pbrMetallicRoughness":{"baseColorFactor":[0.420018,0.420018,0.420018,1.0],"metallicFactor":0.5,"roughnessFactor":0.75},"emissiveFactor":[0.0,0.0,0.0],"doubleSided":true}],"meshes":[{"name":"Mesh0","primitives":[{"indices":2,"material":0,"attributes":{"POSITION":0,"NORMAL":1}}]}],"accessors":[{"bufferView":0,"componentType":5126,"count":388,"type":"VEC3","min":[-0.7449914,-0.80747366,-1.2061071],"max":[0.7449914,0.8065325,0.84070194]},{"bufferView":1,"componentType":5126,"count":388,"type":"VEC3"},{"bufferView":2,"componentType":5123,"count":2316,"type":"SCALAR"}],"bufferViews":[{"target":34962,"buffer":0,"byteLength":4656,"byteOffset":0},{"target":34962,"buffer":0,"byteLength":4656,"byteOffset":4656},{"target":34963,"buffer":0,"byteLength":4632,"byteOffset":9312}],"buffers":[{"byteLength":13944,"uri":"data:application/octet-stream;base64,"}]}