{"scene":0,"asset":{"generator":"ImageToStl.com","version":"2.0"},"scenes":[{"name":"Scene","nodes":[0]}],"nodes":[{"name":"Node0","children":[1]},{"name":"Node1","mesh":0}],"materials":[{"name":"Metal","pbrMetallicRoughness":{"baseColorFactor":[0.384375,0.384375,0.384375,1.0],"metallicFactor":0.5,"roughnessFactor":0.75},"emissiveFactor":[0.0,0.0,0.0],"doubleSided":true},{"name":"Golden","pbrMetallicRoughness":{"baseColorFactor":[0.8,0.425102,0.117108,1.0],"metallicFactor":0.5,"roughnessFactor":0.75},"emissiveFactor":[0.0,0.0,0.0],"doubleSided":true},{"name":"Black","pbrMetallicRoughness":{"baseColorFactor":[0.02721,0.02721,0.02721,1.0],"metallicFactor":0.5,"roughnessFactor":0.75},"emissiveFactor":[0.0,0.0,0.0],"doubleSided":true}],"meshes":[{"name":"Mesh0","primitives":[{"indices":3,"material":0,"attributes":{"POSITION":0,"NORMAL":1,"TEXCOORD_0":2}},{"indices":4,"material":1,"attributes":{"POSITION":0,"NORMAL":1,"TEXCOORD_0":2}},{"indices":5,"material":2,"attributes":{"POSITION":0,"NORMAL":1,"TEXCOORD_0":2}}]}],"accessors":[{"bufferView":0,"componentType":5126,"count":732,"type":"VEC3","min":[-0.15422797,-0.33682606,-0.41493285],"max":[0.16224755,0.24973637,3.356379]},{"bufferView":1,"componentType":5126,"count":732,"type":"VEC3"},{"bufferView":2,"componentType":5126,"count":732,"type":"VEC2"},{"bufferView":3,"componentType":5123,"count":936,"type":"SCALAR"},{"bufferView":4,"componentType":5123,"count":1008,"type":"SCALAR"},{"bufferView":5,"componentType":5123,"count":2664,"type":"SCALAR"}],"bufferViews":[{"target":34962,"buffer":0,"byteLength":8784,"byteOffset":0},{"target":34962,"buffer":0,"byteLength":8784,"byteOffset":8784},{"target":34962,"buffer":0,"byteLength":5856,"byteOffset":17568},{"target":34963,"buffer":0,"byteLength":1872,"byteOffset":23424},{"target":34963,"buffer":0,"byteLength":2016,"byteOffset":25296},{"target":34963,"buffer":0,"byteLength":5328,"byteOffset":27312}],"buffers":[{"byteLength":32640,"uri":"data:application/octet-stream;base64,"}]}