{"scene":0,"asset":{"generator":"ImageToStl.com","version":"2.0"},"scenes":[{"name":"Scene","nodes":[0]}],"nodes":[{"name":"Node0","children":[1]},{"name":"Node1","mesh":0}],"materials":[{"name":"Armor","pbrMetallicRoughness":{"baseColorFactor":[0.152325,0.152325,0.152325,1.0],"metallicFactor":0.5,"roughnessFactor":0.75},"emissiveFactor":[0.0,0.0,0.0],"doubleSided":true},{"name":"Skin","pbrMetallicRoughness":{"baseColorFactor":[0.748401,0.557696,0.323137,1.0],"metallicFactor":0.5,"roughnessFactor":0.75},"emissiveFactor":[0.0,0.0,0.0],"doubleSided":true},{"name":"Boots","pbrMetallicRoughness":{"baseColorFactor":[0.031063,0.01261,0.007906,1.0],"metallicFactor":0.5,"roughnessFactor":0.75},"emissiveFactor":[0.0,0.0,0.0],"doubleSided":true}],"meshes":[{"name":"Mesh0","primitives":[{"indices":3,"material":0,"attributes":{"POSITION":0,"NORMAL":1,"TEXCOORD_0":2}},{"indices":4,"material":1,"attributes":{"POSITION":0,"NORMAL":1,"TEXCOORD_0":2}},{"indices":5,"material":2,"attributes":{"POSITION":0,"NORMAL":1,"TEXCOORD_0":2}}]}],"accessors":[{"bufferView":0,"componentType":5126,"count":516,"type":"VEC3","min":[-1.0998894,-0.58622706,-0.0031468284],"max":[1.1131295,0.7791272,5.5841675]},{"bufferView":1,"componentType":5126,"count":516,"type":"VEC3"},{"bufferView":2,"componentType":5126,"count":516,"type":"VEC2"},{"bufferView":3,"componentType":5123,"count":3582,"type":"SCALAR"},{"bufferView":4,"componentType":5123,"count":3924,"type":"SCALAR"},{"bufferView":5,"componentType":5123,"count":1098,"type":"SCALAR"}],"bufferViews":[{"target":34962,"buffer":0,"byteLength":6192,"byteOffset":0},{"target":34962,"buffer":0,"byteLength":6192,"byteOffset":6192},{"target":34962,"buffer":0,"byteLength":4128,"byteOffset":12384},{"target":34963,"buffer":0,"byteLength":7164,"byteOffset":16512},{"target":34963,"buffer":0,"byteLength":7848,"byteOffset":23676},{"target":34963,"buffer":0,"byteLength":2196,"byteOffset":31524}],"buffers":[{"byteLength":33720,"uri":"data:application/octet-stream;base64,"}]}