{"scene":0,"asset":{"generator":"ImageToStl.com","version":"2.0"},"scenes":[{"name":"Scene","nodes":[0]}],"nodes":[{"name":"Node0","children":[1]},{"name":"Node1","mesh":0}],"materials":[{"name":"Grey","pbrMetallicRoughness":{"baseColorFactor":[0.8,0.8,0.8,1.0],"metallicFactor":0.5,"roughnessFactor":0.75},"emissiveFactor":[0.0,0.0,0.0],"doubleSided":true},{"name":"Brown","pbrMetallicRoughness":{"baseColorFactor":[0.106532,0.046562,0.020491,1.0],"metallicFactor":0.5,"roughnessFactor":0.75},"emissiveFactor":[0.0,0.0,0.0],"doubleSided":true},{"name":"Gold","pbrMetallicRoughness":{"baseColorFactor":[0.65,0.283602,0.049216,1.0],"metallicFactor":0.5,"roughnessFactor":0.75},"emissiveFactor":[0.0,0.0,0.0],"doubleSided":true},{"name":"Red","pbrMetallicRoughness":{"baseColorFactor":[0.142398,0.015502,0.006906,1.0],"metallicFactor":0.5,"roughnessFactor":0.75},"emissiveFactor":[0.0,0.0,0.0],"doubleSided":true}],"meshes":[{"name":"Mesh0","primitives":[{"indices":3,"material":0,"attributes":{"POSITION":0,"NORMAL":1,"TEXCOORD_0":2}},{"indices":4,"material":1,"attributes":{"POSITION":0,"NORMAL":1,"TEXCOORD_0":2}},{"indices":5,"material":2,"attributes":{"POSITION":0,"NORMAL":1,"TEXCOORD_0":2}},{"indices":6,"material":3,"attributes":{"POSITION":0,"NORMAL":1,"TEXCOORD_0":2}}]}],"accessors":[{"bufferView":0,"componentType":5126,"count":299,"type":"VEC3","min":[-0.40102684,-0.10431729,-0.53550166],"max":[0.40102684,0.11167001,2.9143884]},{"bufferView":1,"componentType":5126,"count":299,"type":"VEC3"},{"bufferView":2,"componentType":5126,"count":299,"type":"VEC2"},{"bufferView":3,"componentType":5123,"count":630,"type":"SCALAR"},{"bufferView":4,"componentType":5123,"count":468,"type":"SCALAR"},{"bufferView":5,"componentType":5123,"count":2961,"type":"SCALAR"},{"bufferView":6,"componentType":5123,"count":531,"type":"SCALAR"}],"bufferViews":[{"target":34962,"buffer":0,"byteLength":3588,"byteOffset":0},{"target":34962,"buffer":0,"byteLength":3588,"byteOffset":3588},{"target":34962,"buffer":0,"byteLength":2392,"byteOffset":7176},{"target":34963,"buffer":0,"byteLength":1260,"byteOffset":9568},{"target":34963,"buffer":0,"byteLength":936,"byteOffset":10828},{"target":34963,"buffer":0,"byteLength":5922,"byteOffset":11764},{"target":34963,"buffer":0,"byteLength":1062,"byteOffset":17688}],"buffers":[{"byteLength":18752,"uri":"data:application/octet-stream;base64,"}]}