{"scene":0,"asset":{"generator":"ImageToStl.com","version":"2.0"},"scenes":[{"name":"Scene","nodes":[0]}],"nodes":[{"name":"Node0","children":[1]},{"name":"Node1","mesh":0}],"materials":[{"name":"Grey","pbrMetallicRoughness":{"baseColorFactor":[0.384369,0.384369,0.384369,1.0],"metallicFactor":0.5,"roughnessFactor":0.75},"emissiveFactor":[0.0,0.0,0.0],"doubleSided":true}],"meshes":[{"name":"Mesh0","primitives":[{"indices":3,"material":0,"attributes":{"POSITION":0,"NORMAL":1,"TEXCOORD_0":2}}]}],"accessors":[{"bufferView":0,"componentType":5126,"count":52,"type":"VEC3","min":[-1.3041494,-0.5136066,-0.2294724],"max":[1.3041494,0.51360655,0.22947216]},{"bufferView":1,"componentType":5126,"count":52,"type":"VEC3"},{"bufferView":2,"componentType":5126,"count":52,"type":"VEC2"},{"bufferView":3,"componentType":5123,"count":864,"type":"SCALAR"}],"bufferViews":[{"target":34962,"buffer":0,"byteLength":624,"byteOffset":0},{"target":34962,"buffer":0,"byteLength":624,"byteOffset":624},{"target":34962,"buffer":0,"byteLength":416,"byteOffset":1248},{"target":34963,"buffer":0,"byteLength":1728,"byteOffset":1664}],"buffers":[{"byteLength":3392,"uri":"data:application/octet-stream;base64,"}]}