{"scene":0,"asset":{"generator":"ImageToStl.com","version":"2.0"},"scenes":[{"name":"Scene","nodes":[0]}],"nodes":[{"name":"Node0","children":[1]},{"name":"Node1","mesh":0}],"materials":[{"name":"White","pbrMetallicRoughness":{"baseColorFactor":[0.8,0.8,0.8,1.0],"metallicFactor":0.5,"roughnessFactor":0.75},"emissiveFactor":[0.0,0.0,0.0],"doubleSided":true},{"name":"Black","pbrMetallicRoughness":{"baseColorFactor":[0.029098,0.029098,0.029098,1.0],"metallicFactor":0.5,"roughnessFactor":0.75},"emissiveFactor":[0.0,0.0,0.0],"doubleSided":true},{"name":"Pink","pbrMetallicRoughness":{"baseColorFactor":[0.8,0.176049,0.21669,1.0],"metallicFactor":0.5,"roughnessFactor":0.75},"emissiveFactor":[0.0,0.0,0.0],"doubleSided":true}],"meshes":[{"name":"Mesh0","primitives":[{"indices":2,"material":0,"attributes":{"POSITION":0,"NORMAL":1}},{"indices":3,"material":1,"attributes":{"POSITION":0,"NORMAL":1}},{"indices":4,"material":2,"attributes":{"POSITION":0,"NORMAL":1}}]}],"accessors":[{"bufferView":0,"componentType":5126,"count":400,"type":"VEC3","min":[-1.1178912,-5.3962107,-0.06814417],"max":[1.1490976,3.776619,5.079702]},{"bufferView":1,"componentType":5126,"count":400,"type":"VEC3"},{"bufferView":2,"componentType":5123,"count":1062,"type":"SCALAR"},{"bufferView":3,"componentType":5123,"count":1188,"type":"SCALAR"},{"bufferView":4,"componentType":5123,"count":138,"type":"SCALAR"}],"bufferViews":[{"target":34962,"buffer":0,"byteLength":4800,"byteOffset":0},{"target":34962,"buffer":0,"byteLength":4800,"byteOffset":4800},{"target":34963,"buffer":0,"byteLength":2124,"byteOffset":9600},{"target":34963,"buffer":0,"byteLength":2376,"byteOffset":11724},{"target":34963,"buffer":0,"byteLength":276,"byteOffset":14100}],"buffers":[{"byteLength":14376,"uri":"data:application/octet-stream;base64,"}]}