{"scene":0,"asset":{"generator":"ImageToStl.com","version":"2.0"},"scenes":[{"name":"Scene","nodes":[0]}],"nodes":[{"name":"Node0","children":[1]},{"name":"Node1","mesh":0}],"materials":[{"name":"Material.003","pbrMetallicRoughness":{"baseColorFactor":[0.174647,0.074214,0.046665,1.0],"metallicFactor":0.5,"roughnessFactor":0.75},"emissiveFactor":[0.0,0.0,0.0],"doubleSided":true},{"name":"Material.006","pbrMetallicRoughness":{"baseColorFactor":[0.020379,0.020379,0.020379,1.0],"metallicFactor":0.5,"roughnessFactor":0.75},"emissiveFactor":[0.0,0.0,0.0],"doubleSided":true}],"meshes":[{"name":"Mesh0","primitives":[{"indices":2,"material":0,"attributes":{"POSITION":0,"NORMAL":1}},{"indices":3,"material":1,"attributes":{"POSITION":0,"NORMAL":1}}]}],"accessors":[{"bufferView":0,"componentType":5126,"count":347,"type":"VEC3","min":[-1.2772714,-5.116979,0.017885776],"max":[1.2838215,4.123728,6.923783]},{"bufferView":1,"componentType":5126,"count":347,"type":"VEC3"},{"bufferView":2,"componentType":5123,"count":1512,"type":"SCALAR"},{"bufferView":3,"componentType":5123,"count":558,"type":"SCALAR"}],"bufferViews":[{"target":34962,"buffer":0,"byteLength":4164,"byteOffset":0},{"target":34962,"buffer":0,"byteLength":4164,"byteOffset":4164},{"target":34963,"buffer":0,"byteLength":3024,"byteOffset":8328},{"target":34963,"buffer":0,"byteLength":1116,"byteOffset":11352}],"buffers":[{"byteLength":12468,"uri":"data:application/octet-stream;base64,"}]}