{"scene":0,"asset":{"generator":"ImageToStl.com","version":"2.0"},"scenes":[{"name":"Scene","nodes":[0]}],"nodes":[{"name":"Node0","children":[1]},{"name":"Node1","mesh":0}],"materials":[{"name":"Brown","pbrMetallicRoughness":{"baseColorFactor":[0.191202,0.095307,0.051269,1.0],"metallicFactor":0.5,"roughnessFactor":0.75},"emissiveFactor":[0.0,0.0,0.0],"doubleSided":true},{"name":"White","pbrMetallicRoughness":{"baseColorFactor":[0.8,0.8,0.8,1.0],"metallicFactor":0.5,"roughnessFactor":0.75},"emissiveFactor":[0.0,0.0,0.0],"doubleSided":true},{"name":"Grey","pbrMetallicRoughness":{"baseColorFactor":[0.201896,0.201896,0.201896,1.0],"metallicFactor":0.5,"roughnessFactor":0.75},"emissiveFactor":[0.0,0.0,0.0],"doubleSided":true}],"meshes":[{"name":"Mesh0","primitives":[{"indices":2,"material":0,"attributes":{"POSITION":0,"NORMAL":1}},{"indices":3,"material":1,"attributes":{"POSITION":0,"NORMAL":1}},{"indices":4,"material":2,"attributes":{"POSITION":0,"NORMAL":1}}]}],"accessors":[{"bufferView":0,"componentType":5126,"count":332,"type":"VEC3","min":[-0.79228544,-2.8869495,-0.017501049],"max":[0.77598137,2.0203667,5.840483]},{"bufferView":1,"componentType":5126,"count":332,"type":"VEC3"},{"bufferView":2,"componentType":5123,"count":1098,"type":"SCALAR"},{"bufferView":3,"componentType":5123,"count":504,"type":"SCALAR"},{"bufferView":4,"componentType":5123,"count":384,"type":"SCALAR"}],"bufferViews":[{"target":34962,"buffer":0,"byteLength":3984,"byteOffset":0},{"target":34962,"buffer":0,"byteLength":3984,"byteOffset":3984},{"target":34963,"buffer":0,"byteLength":2196,"byteOffset":7968},{"target":34963,"buffer":0,"byteLength":1008,"byteOffset":10164},{"target":34963,"buffer":0,"byteLength":768,"byteOffset":11172}],"buffers":[{"byteLength":11940,"uri":"data:application/octet-stream;base64,"}]}