{"scene":0,"asset":{"generator":"ImageToStl.com","version":"2.0"},"scenes":[{"name":"Scene","nodes":[0]}],"nodes":[{"name":"Node0","children":[1]},{"name":"Node1","mesh":0}],"materials":[{"name":"Material.003","pbrMetallicRoughness":{"baseColorFactor":[0.686685,0.3564,0.371238,1.0],"metallicFactor":0.5,"roughnessFactor":0.75},"emissiveFactor":[0.0,0.0,0.0],"doubleSided":true},{"name":"Material","pbrMetallicRoughness":{"baseColorFactor":[0.201898,0.087143,0.048658,1.0],"metallicFactor":0.5,"roughnessFactor":0.75},"emissiveFactor":[0.0,0.0,0.0],"doubleSided":true}],"meshes":[{"name":"Mesh0","primitives":[{"indices":2,"material":0,"attributes":{"POSITION":0,"NORMAL":1}},{"indices":3,"material":1,"attributes":{"POSITION":0,"NORMAL":1}}]}],"accessors":[{"bufferView":0,"componentType":5126,"count":283,"type":"VEC3","min":[-1.6525275,-5.2284236,-0.004261319],"max":[1.6511006,4.542041,4.5707803]},{"bufferView":1,"componentType":5126,"count":283,"type":"VEC3"},{"bufferView":2,"componentType":5123,"count":1566,"type":"SCALAR"},{"bufferView":3,"componentType":5123,"count":120,"type":"SCALAR"}],"bufferViews":[{"target":34962,"buffer":0,"byteLength":3396,"byteOffset":0},{"target":34962,"buffer":0,"byteLength":3396,"byteOffset":3396},{"target":34963,"buffer":0,"byteLength":3132,"byteOffset":6792},{"target":34963,"buffer":0,"byteLength":240,"byteOffset":9924}],"buffers":[{"byteLength":10164,"uri":"data:application/octet-stream;base64,"}]}