{"scene":0,"asset":{"generator":"ImageToStl.com","version":"2.0"},"scenes":[{"name":"Scene","nodes":[0]}],"nodes":[{"name":"Node0","children":[1]},{"name":"Node1","mesh":0}],"materials":[{"name":"Beige","pbrMetallicRoughness":{"baseColorFactor":[0.799103,0.603827,0.337164,1.0],"metallicFactor":0.5,"roughnessFactor":0.75},"emissiveFactor":[0.0,0.0,0.0],"doubleSided":true},{"name":"Brown","pbrMetallicRoughness":{"baseColorFactor":[0.03968,0.013711,0.00902,1.0],"metallicFactor":0.5,"roughnessFactor":0.75},"emissiveFactor":[0.0,0.0,0.0],"doubleSided":true}],"meshes":[{"name":"Mesh0","primitives":[{"indices":2,"material":0,"attributes":{"POSITION":0,"NORMAL":1}},{"indices":3,"material":1,"attributes":{"POSITION":0,"NORMAL":1}}]}],"accessors":[{"bufferView":0,"componentType":5126,"count":324,"type":"VEC3","min":[-0.7246093,-2.0513058,-0.018064557],"max":[0.7224225,1.4491453,2.6345809]},{"bufferView":1,"componentType":5126,"count":324,"type":"VEC3"},{"bufferView":2,"componentType":5123,"count":1344,"type":"SCALAR"},{"bufferView":3,"componentType":5123,"count":588,"type":"SCALAR"}],"bufferViews":[{"target":34962,"buffer":0,"byteLength":3888,"byteOffset":0},{"target":34962,"buffer":0,"byteLength":3888,"byteOffset":3888},{"target":34963,"buffer":0,"byteLength":2688,"byteOffset":7776},{"target":34963,"buffer":0,"byteLength":1176,"byteOffset":10464}],"buffers":[{"byteLength":11640,"uri":"data:application/octet-stream;base64,"}]}