{"scene":0,"asset":{"generator":"ImageToStl.com","version":"2.0"},"scenes":[{"name":"Scene","nodes":[0]}],"nodes":[{"name":"Node0","children":[1]},{"name":"Node1","mesh":0}],"materials":[{"name":"White","pbrMetallicRoughness":{"baseColorFactor":[0.8,0.8,0.8,1.0],"metallicFactor":0.5,"roughnessFactor":0.75},"emissiveFactor":[0.0,0.0,0.0],"doubleSided":true},{"name":"Black","pbrMetallicRoughness":{"baseColorFactor":[0.037408,0.037408,0.037408,1.0],"metallicFactor":0.5,"roughnessFactor":0.75},"emissiveFactor":[0.0,0.0,0.0],"doubleSided":true}],"meshes":[{"name":"Mesh0","primitives":[{"indices":2,"material":0,"attributes":{"POSITION":0,"NORMAL":1}},{"indices":3,"material":1,"attributes":{"POSITION":0,"NORMAL":1}}]}],"accessors":[{"bufferView":0,"componentType":5126,"count":307,"type":"VEC3","min":[-1.1124939,-3.5106604,-0.015032802],"max":[1.1125432,2.4087424,4.349553]},{"bufferView":1,"componentType":5126,"count":307,"type":"VEC3"},{"bufferView":2,"componentType":5123,"count":930,"type":"SCALAR"},{"bufferView":3,"componentType":5123,"count":906,"type":"SCALAR"}],"bufferViews":[{"target":34962,"buffer":0,"byteLength":3684,"byteOffset":0},{"target":34962,"buffer":0,"byteLength":3684,"byteOffset":3684},{"target":34963,"buffer":0,"byteLength":1860,"byteOffset":7368},{"target":34963,"buffer":0,"byteLength":1812,"byteOffset":9228}],"buffers":[{"byteLength":11040,"uri":"data:application/octet-stream;base64,"}]}