{"scene":0,"asset":{"generator":"ImageToStl.com","version":"2.0"},"scenes":[{"name":"Scene","nodes":[0]}],"nodes":[{"name":"Node0","children":[1]},{"name":"Node1","mesh":0}],"materials":[{"name":"White","pbrMetallicRoughness":{"baseColorFactor":[0.8,0.8,0.8,1.0],"metallicFactor":0.5,"roughnessFactor":0.75},"emissiveFactor":[0.0,0.0,0.0],"doubleSided":true},{"name":"Black","pbrMetallicRoughness":{"baseColorFactor":[0.029098,0.029098,0.029098,1.0],"metallicFactor":0.5,"roughnessFactor":0.75},"emissiveFactor":[0.0,0.0,0.0],"doubleSided":true}],"meshes":[{"name":"Mesh0","primitives":[{"indices":2,"material":0,"attributes":{"POSITION":0,"NORMAL":1}},{"indices":3,"material":1,"attributes":{"POSITION":0,"NORMAL":1}}]}],"accessors":[{"bufferView":0,"componentType":5126,"count":679,"type":"VEC3","min":[-1.2743948,-5.0709763,-0.046327688],"max":[1.2850966,4.162682,7.0276427]},{"bufferView":1,"componentType":5126,"count":679,"type":"VEC3"},{"bufferView":2,"componentType":5123,"count":1746,"type":"SCALAR"},{"bufferView":3,"componentType":5123,"count":2316,"type":"SCALAR"}],"bufferViews":[{"target":34962,"buffer":0,"byteLength":8148,"byteOffset":0},{"target":34962,"buffer":0,"byteLength":8148,"byteOffset":8148},{"target":34963,"buffer":0,"byteLength":3492,"byteOffset":16296},{"target":34963,"buffer":0,"byteLength":4632,"byteOffset":19788}],"buffers":[{"byteLength":24420,"uri":"data:application/octet-stream;base64,"}]}